<svg width="32" height="32" viewBox="0 0 32 32" fill="none" xmlns="http://www.w3.org/2000/svg">
  <!-- Background circle -->
  <circle cx="16" cy="16" r="16" fill="#2D2D2D"/>
  
  <!-- Face -->
  <circle cx="16" cy="13" r="5.5" fill="#8B4513"/>
  
  <!-- Hair (smooth, straight) -->
  <path d="M10.5 7.5C10.5 5.5 12.5 3.5 16 3.5C19.5 3.5 21.5 5.5 21.5 7.5C21.5 9.5 19.5 11.5 16 11.5C12.5 11.5 10.5 9.5 10.5 7.5Z" fill="#2D1810"/>
  
  <!-- Eyes -->
  <ellipse cx="14" cy="12" rx="1.2" ry="1.5" fill="#FFFFFF"/>
  <ellipse cx="18" cy="12" rx="1.2" ry="1.5" fill="#FFFFFF"/>
  <circle cx="14" cy="12" r="0.6" fill="#333333"/>
  <circle cx="18" cy="12" r="0.6" fill="#333333"/>
  
  <!-- Eyebrows -->
  <path d="M12.5 10.5L15.5 10" stroke="#2D1810" stroke-width="1" stroke-linecap="round"/>
  <path d="M16.5 10L19.5 10.5" stroke="#2D1810" stroke-width="1" stroke-linecap="round"/>
  
  <!-- Nose -->
  <ellipse cx="16" cy="14" rx="0.6" ry="0.8" fill="#7A3F0F"/>
  
  <!-- Mouth -->
  <path d="M14.5 15.5C15.5 16.5 16.5 16.5 17.5 15.5" stroke="#333333" stroke-width="1" stroke-linecap="round"/>
  
  <!-- Neck -->
  <rect x="14.5" y="18.5" width="3" height="2.5" fill="#8B4513"/>
  
  <!-- Shirt/Collar -->
  <rect x="12" y="21" width="8" height="8" rx="1" fill="#4A4A4A"/>
  <path d="M14 21L16 19L18 21" stroke="#8B4513" stroke-width="1" fill="none"/>
</svg>