<svg width="48" height="48" viewBox="0 0 48 48" fill="none" xmlns="http://www.w3.org/2000/svg">
  <!-- Server rack -->
  <rect x="8" y="6" width="32" height="36" rx="2" stroke="#D4AF37" stroke-width="2" stroke-linecap="round" stroke-linejoin="round"/>
  
  <!-- Server units -->
  <rect x="12" y="12" width="24" height="6" rx="1" fill="#D4AF37" opacity="0.2"/>
  <rect x="12" y="20" width="24" height="6" rx="1" fill="#D4AF37" opacity="0.2"/>
  <rect x="12" y="28" width="24" height="6" rx="1" fill="#D4AF37" opacity="0.2"/>
  
  <!-- Server indicators -->
  <circle cx="16" cy="15" r="1.5" fill="#00FF00"/>
  <circle cx="20" cy="15" r="1.5" fill="#00FF00"/>
  <circle cx="16" cy="23" r="1.5" fill="#FFA500"/>
  <circle cx="20" cy="23" r="1.5" fill="#00FF00"/>
  <circle cx="16" cy="31" r="1.5" fill="#00FF00"/>
  <circle cx="20" cy="31" r="1.5" fill="#FFA500"/>
  
  <!-- Network cables -->
  <path d="M40 15L36 15" stroke="#B8860B" stroke-width="2" stroke-linecap="round"/>
  <path d="M40 23L36 23" stroke="#B8860B" stroke-width="2" stroke-linecap="round"/>
  <path d="M40 31L36 31" stroke="#B8860B" stroke-width="2" stroke-linecap="round"/>
  
  <!-- Terminal/Console -->
  <rect x="28" y="15" width="8" height="4" rx="1" stroke="#B8860B" stroke-width="1"/>
  <rect x="28" y="23" width="8" height="4" rx="1" stroke="#B8860B" stroke-width="1"/>
  <rect x="28" y="31" width="8" height="4" rx="1" stroke="#B8860B" stroke-width="1"/>
  
  <!-- Command lines -->
  <line x1="30" y1="17" x2="34" y2="17" stroke="#B8860B" stroke-width="1"/>
  <line x1="30" y1="25" x2="33" y2="25" stroke="#B8860B" stroke-width="1"/>
  <line x1="30" y1="33" x2="35" y2="33" stroke="#B8860B" stroke-width="1"/>
</svg>