<svg width="24" height="18" viewBox="0 0 24 18" fill="none" xmlns="http://www.w3.org/2000/svg">
  <!-- Red stripes -->
  <rect width="24" height="18" fill="#B22234"/>
  <!-- White stripes -->
  <rect width="24" height="1.38" fill="#FFFFFF"/>
  <rect y="2.77" width="24" height="1.38" fill="#FFFFFF"/>
  <rect y="5.54" width="24" height="1.38" fill="#FFFFFF"/>
  <rect y="8.31" width="24" height="1.38" fill="#FFFFFF"/>
  <rect y="11.08" width="24" height="1.38" fill="#FFFFFF"/>
  <rect y="13.85" width="24" height="1.38" fill="#FFFFFF"/>
  <rect y="16.62" width="24" height="1.38" fill="#FFFFFF"/>
  <!-- Blue canton -->
  <rect width="9.6" height="9.69" fill="#3C3B6E"/>
  <!-- Stars pattern (simplified but recognizable) -->
  <g fill="#FFFFFF">
    <!-- Row 1 -->
    <circle cx="1.2" cy="1.2" r="0.3"/>
    <circle cx="2.4" cy="1.2" r="0.3"/>
    <circle cx="3.6" cy="1.2" r="0.3"/>
    <circle cx="4.8" cy="1.2" r="0.3"/>
    <circle cx="6" cy="1.2" r="0.3"/>
    <circle cx="7.2" cy="1.2" r="0.3"/>
    <circle cx="8.4" cy="1.2" r="0.3"/>
    <!-- Row 2 -->
    <circle cx="1.8" cy="2.4" r="0.3"/>
    <circle cx="3" cy="2.4" r="0.3"/>
    <circle cx="4.2" cy="2.4" r="0.3"/>
    <circle cx="5.4" cy="2.4" r="0.3"/>
    <circle cx="6.6" cy="2.4" r="0.3"/>
    <circle cx="7.8" cy="2.4" r="0.3"/>
    <!-- Row 3 -->
    <circle cx="1.2" cy="3.6" r="0.3"/>
    <circle cx="2.4" cy="3.6" r="0.3"/>
    <circle cx="3.6" cy="3.6" r="0.3"/>
    <circle cx="4.8" cy="3.6" r="0.3"/>
    <circle cx="6" cy="3.6" r="0.3"/>
    <circle cx="7.2" cy="3.6" r="0.3"/>
    <circle cx="8.4" cy="3.6" r="0.3"/>
    <!-- Row 4 -->
    <circle cx="1.8" cy="4.8" r="0.3"/>
    <circle cx="3" cy="4.8" r="0.3"/>
    <circle cx="4.2" cy="4.8" r="0.3"/>
    <circle cx="5.4" cy="4.8" r="0.3"/>
    <circle cx="6.6" cy="4.8" r="0.3"/>
    <circle cx="7.8" cy="4.8" r="0.3"/>
    <!-- Row 5 -->
    <circle cx="1.2" cy="6" r="0.3"/>
    <circle cx="2.4" cy="6" r="0.3"/>
    <circle cx="3.6" cy="6" r="0.3"/>
    <circle cx="4.8" cy="6" r="0.3"/>
    <circle cx="6" cy="6" r="0.3"/>
    <circle cx="7.2" cy="6" r="0.3"/>
    <circle cx="8.4" cy="6" r="0.3"/>
    <!-- Row 6 -->
    <circle cx="1.8" cy="7.2" r="0.3"/>
    <circle cx="3" cy="7.2" r="0.3"/>
    <circle cx="4.2" cy="7.2" r="0.3"/>
    <circle cx="5.4" cy="7.2" r="0.3"/>
    <circle cx="6.6" cy="7.2" r="0.3"/>
    <circle cx="7.8" cy="7.2" r="0.3"/>
    <!-- Row 7 -->
    <circle cx="1.2" cy="8.4" r="0.3"/>
    <circle cx="2.4" cy="8.4" r="0.3"/>
    <circle cx="3.6" cy="8.4" r="0.3"/>
    <circle cx="4.8" cy="8.4" r="0.3"/>
    <circle cx="6" cy="8.4" r="0.3"/>
    <circle cx="7.2" cy="8.4" r="0.3"/>
    <circle cx="8.4" cy="8.4" r="0.3"/>
  </g>
</svg>